<svg xmlns="http://www.w3.org/2000/svg" viewBox="0 0 1600 700" role="img" aria-labelledby="title desc"><title id="title">LTZZZ 未来 AGI</title><desc id="desc">用 AI 连接现在与未来，探索 AGI 的可能</desc><defs><linearGradient id="bg" x1="0" y1="0" x2="1" y2="1"><stop stop-color="#020817"/><stop offset=".55" stop-color="#071b38"/><stop offset="1" stop-color="#090522"/></linearGradient><radialGradient id="glow"><stop stop-color="#5ff7ff" stop-opacity=".95"/><stop offset=".35" stop-color="#1bc7ff" stop-opacity=".35"/><stop offset="1" stop-color="#001" stop-opacity="0"/></radialGradient><linearGradient id="cyan" x1="0" x2="1"><stop stop-color="#5ff7ff"/><stop offset="1" stop-color="#4b8cff"/></linearGradient><filter id="blur"><feGaussianBlur stdDeviation="22"/></filter></defs><rect width="1600" height="700" fill="url(#bg)"/><circle cx="1120" cy="300" r="330" fill="url(#glow)" filter="url(#blur)"/><circle cx="1120" cy="300" r="210" fill="none" stroke="#3be8ff" stroke-width="3" opacity=".55"/><circle cx="1120" cy="300" r="250" fill="none" stroke="#557bff" stroke-width="1" opacity=".45"/><ellipse cx="1120" cy="300" rx="310" ry="85" fill="none" stroke="#39eaff" stroke-width="2" opacity=".65"/><ellipse cx="1120" cy="300" rx="260" ry="145" fill="none" stroke="#5876ff" stroke-width="2" opacity=".45" transform="rotate(-18 1120 300)"/><g fill="#8dfcff"> <circle cx="890" cy="150" r="4"/><circle cx="1340" cy="210" r="3"/><circle cx="1260" cy="470" r="4"/><circle cx="980" cy="510" r="3"/><circle cx="1450" cy="370" r="2"/></g><path d="M0 610 Q250 520 470 610 T920 590 T1400 600 T1600 570 V700 H0Z" fill="#010817"/><g opacity=".9" fill="none" stroke="url(#cyan)"><path d="M760 160 L1010 80 L1330 120 L1450 270 L1360 450 L1080 500 L850 390Z"/><path d="M820 250 L1000 180 L1290 220 L1370 330 L1190 430 L930 390Z"/><path d="M930 390 L1080 500 L1190 430"/></g><text x="90" y="135" fill="#9fefff" font-family="Arial,'Microsoft YaHei',sans-serif" font-size="30" letter-spacing="8">LTZZZ DIGITAL LAB · FUTURE</text><text x="90" y="245" fill="#fff" font-family="Arial,'Microsoft YaHei',sans-serif" font-size="82" font-weight="700">探索 <tspan fill="url(#cyan)">AGI</tspan> 的可能</text><text x="90" y="320" fill="#d8ecff" font-family="Arial,'Microsoft YaHei',sans-serif" font-size="42">让智能成为人生的合伙人</text><text x="90" y="380" fill="#91a9c5" font-family="Arial,'Microsoft YaHei',sans-serif" font-size="23">从投资到生活，从个人成长到数字世界</text><text x="90" y="418" fill="#91a9c5" font-family="Arial,'Microsoft YaHei',sans-serif" font-size="23">观察 · 行深 · 改变习气 · 三维因果链</text><rect x="90" y="470" width="290" height="68" rx="34" fill="url(#cyan)"/><text x="235" y="513" text-anchor="middle" fill="#00111d" font-family="Arial,'Microsoft YaHei',sans-serif" font-size="22" font-weight="700">进入未来 · AGI 实验室 →</text><text x="1120" y="325" text-anchor="middle" fill="#fff" font-family="Arial,sans-serif" font-size="94" font-weight="700" opacity=".96">AGI</text><text x="1120" y="555" text-anchor="middle" fill="#78dcff" font-family="Arial,'Microsoft YaHei',sans-serif" font-size="20" letter-spacing="5">AI INVESTING · WEB3 · AGENT · CAUSAL CHAIN</text></svg>